inDegrees=no
num_controls=7
num_derivatives=13
num_iterations=116
num_multipliers=7
num_parameters=0
num_slacks=7
num_states=26
objective=5.260348
objective_accelerations=0.785384
objective_balance=0.022760
objective_effort=0.247094
objective_height=4.128341
objective_ligament=0.076769
solver_duration=1292.705727
status=Solve_Succeeded
success=true
DataType=double
version=3
OpenSimVersion=4.4-2022-07-23-0e9fedc
endheader
time	/jointset/ground_pelvis/pelvis_tilt/value	/jointset/ground_pelvis/pelvis_tx/value	/jointset/ground_pelvis/pelvis_ty/value	/jointset/hip_l/hip_flexion_l/value	/jointset/hip_l/hip_adduction_l/value	/jointset/hip_l/hip_rotation_l/value	/jointset/back/lumbar_extension/value	/jointset/patellofemoral_l/patellar_flexion_l/value	/jointset/knee_l/knee_flexion_l/value	/jointset/knee_l/knee_adduction_l/value	/jointset/knee_l/knee_rotation_l/value	/jointset/ankle_l/ankle_angle_l/value	/jointset/subtalar_l/subtalar_angle_l/value	/jointset/ground_pelvis/pelvis_tilt/speed	/jointset/ground_pelvis/pelvis_tx/speed	/jointset/ground_pelvis/pelvis_ty/speed	/jointset/hip_l/hip_flexion_l/speed	/jointset/hip_l/hip_adduction_l/speed	/jointset/hip_l/hip_rotation_l/speed	/jointset/back/lumbar_extension/speed	/jointset/patellofemoral_l/patellar_flexion_l/speed	/jointset/knee_l/knee_flexion_l/speed	/jointset/knee_l/knee_adduction_l/speed	/jointset/knee_l/knee_rotation_l/speed	/jointset/ankle_l/ankle_angle_l/speed	/jointset/subtalar_l/subtalar_angle_l/speed	/forceset/tau_hip_flexion_l	/forceset/tau_hip_adduction_l	/forceset/tau_hip_rotation_l	/forceset/tau_knee_flexion_l	/forceset/tau_ankle_angle_l	/forceset/tau_subtalar_angle_l	/forceset/tau_lumbar_extension	lambda_cid13_p0	lambda_cid13_p1	lambda_cid13_p2	lambda_cid13_p3	lambda_cid13_p4	lambda_cid13_p5	lambda_cid14_p0	/jointset/ground_pelvis/pelvis_tilt/accel	/jointset/ground_pelvis/pelvis_tx/accel	/jointset/ground_pelvis/pelvis_ty/accel	/jointset/hip_l/hip_flexion_l/accel	/jointset/hip_l/hip_adduction_l/accel	/jointset/hip_l/hip_rotation_l/accel	/jointset/back/lumbar_extension/accel	/jointset/patellofemoral_l/patellar_flexion_l/accel	/jointset/knee_l/knee_flexion_l/accel	/jointset/knee_l/knee_adduction_l/accel	/jointset/knee_l/knee_rotation_l/accel	/jointset/ankle_l/ankle_angle_l/accel	/jointset/subtalar_l/subtalar_angle_l/accel	gamma_cid13_p0	gamma_cid13_p1	gamma_cid13_p2	gamma_cid13_p3	gamma_cid13_p4	gamma_cid13_p5	gamma_cid14_p0
0.5	-0.4467333784856475	-0.0766702469967819	0.7588441526326003	1.272143389898803	-0.3567396397972117	-0.04088021071390925	-0.4121977142929665	0.766780155360664	0.7667801553605759	-0.0596798673871988	-0.1745243980723445	0.04902716179066887	0.07858459813141558	-1.371909850907392	-0.4224208968285526	-0.5680138950395096	3.102090076315062	0.06722835503927559	0.4700023797149039	-0.2683649791362666	1.484134459816719	1.48413445981668	0.2479698894127092	-6.230660207120044e-05	-0.1305241217855725	0.02596089273523741	-0.1765867189927191	-0.000313907246130509	0.006481337927249917	-0.1487450027800568	0.1015818771570256	0.009327860497722522	0.1566838183298173	8.101140815037615	-4.335844845373324	-0.8847114769139902	-9.895436752206168	-433.7424708977804	-66.16233685698916	-12.52670548395301	0.6463986914785543	0.8075515286675904	-0.4276766966674733	-1.932410478647077	0.1434326480233299	-0.5037877572532726	1.715829784565906	-1.193002580032062	-1.193002580032034	-0.3911427403886064	0.04619238858507452	-0.05775584231826955	0.1331284996901152	-1.077777654862391e-07	-1.140918908938685e-06	1.633773159987107e-07	-2.231715117748111e-07	-4.584493715128085e-07	4.675832479560028e-07	-2.73347432162535e-07
0.51	-0.4604170407957763	-0.08085334517859502	0.7531441743429975	1.303061350386384	-0.356061834927663	-0.03620699291406477	-0.4147968776480475	0.7815591907801887	0.7815591907801885	-0.0572220959092918	-0.1745250164623148	0.04771893231384703	0.07884911498900822	-1.364640394805576	-0.4141375257608225	-0.5718387899912091	3.081049557045221	0.06831208238759955	0.4646301769325221	-0.2514575614315164	1.471439230426217	1.47143923042607	0.2435294380117016	-3.680246808227471e-05	-0.1310974708235689	0.02692801659553825	-0.1838031320201094	8.547121086053519e-05	0.005875309262506965	-0.1497664220425456	0.1044048775122742	0.01011795674092739	0.1617513052448199	8.824501193877701	-4.626667252295971	-1.042774972963844	-10.58900388063586	-438.1278699793024	-66.4124222092608	-11.91382352196423	0.7945097322373474	0.8478703105823735	-0.3385410513934791	-2.257791337884986	0.08792888406120995	-0.5557985845476623	1.679717330752565	-1.342738802917848	-1.342738802933579	-0.4789675194046221	-0.01549057957423007	-0.05352403131874275	0.0764760705015344	-9.073039821269153e-08	-1.106284622950939e-06	2.109764442308586e-08	-2.365433141188597e-07	-4.00466462059319e-07	4.491997558258715e-07	-2.501030330635292e-07
0.52	-0.4740225504123811	-0.08495178156677917	0.7474102180724821	1.333755321943915	-0.3553737755634607	-0.03158786955119099	-0.4172266629126203	0.7962042827689934	0.7962042827689676	-0.05481042318154801	-0.174524623812011	0.04640568942728816	0.0791228974334639	-1.356279312195536	-0.4054885381027615	-0.5748094912216926	3.05729229030614	0.0692792539688767	0.4591834923174666	-0.2344893610338405	1.457345773661369	1.457345773661116	0.2387501394327985	0.0001399014506969882	-0.131526803732717	0.02781401010789929	-0.1910195450473251	0.0004848496679557472	0.005269280596687562	-0.1507878413050121	0.1072278778675303	0.0109080529842585	0.1668187921599698	9.54745308174077	-4.918001952493305	-1.200089967614255	-11.28777341217368	-442.5212854618641	-66.70559558698933	-11.30390263139602	0.8647239931233837	0.880674846733835	-0.2568379524242802	-2.475759972494956	0.1201214946138498	-0.5186841237879745	1.727986323151014	-1.472648054900985	-1.472648054900974	-0.4589121759677047	0.07643234554317627	-0.02895261654848575	0.1169024301022044	-5.786371811035705e-08	-1.215784859647313e-06	-3.898953332206308e-07	-2.936927649421167e-07	-2.893727090241333e-07	3.933085735783983e-07	-2.163119307964187e-07
0.53	-0.4875394193297484	-0.08896224976046475	0.7416506946079749	1.36419936391016	-0.3546761626249317	-0.02702565136041531	-0.4194868604814073	0.810701993105613	0.8107019931058129	-0.05244586752028145	-0.174522998344025	0.04508878871038463	0.07940562684818384	-1.346927105887327	-0.3965753156976466	-0.5769619863664338	3.031136226436796	0.07023100820012418	0.4531799269682716	-0.2176072488340627	1.441995111782935	1.441995111782716	0.2341793794828517	0.0001594721987645655	-0.1318508662614787	0.02872049432397826	-0.1980195857866404	0.0009655532023274511	0.004601636143964053	-0.1513093822731091	0.1090756486522802	0.01160984095883088	0.1715178128101182	9.963340657297858	-5.143328292630727	-1.338105855891661	-11.54968990852167	-446.513542692473	-66.79935967555029	-10.69760326856217	0.9955359187281037	0.9010489361517271	-0.1745192025455613	-2.742551090218087	0.0811474886966687	-0.6533665485712332	1.659759251804577	-1.59641282587146	-1.596412825866075	-0.4536953200436951	-0.03919713420564463	-0.03382290794429686	0.07608935370155862	-7.834527413823445e-08	-9.641351841524244e-07	1.495277105041959e-08	-2.240937379811655e-07	-3.079072741538765e-07	4.769737074192795e-07	-2.286411556653085e-07
0.54	-0.5009577527902527	-0.09288270513034885	0.7358736334106093	1.394370440938502	-0.3539693431238201	-0.02252590358466191	-0.4215799498115182	0.825040169309301	0.8250401693093395	-0.05012652694265651	-0.1745219604827626	0.04376870940081198	0.0796971346923321	-1.336572220816763	-0.387485973342468	-0.5783170377930059	3.0026993027249	0.07112056648393641	0.4466894092956854	-0.2010677132977406	1.425438947042219	1.425438947042034	0.2297071229115429	2.238000104459411e-05	-0.1321625222664208	0.02956969599370069	-0.2050196265257199	0.001446256737129607	0.00393399168737796	-0.151830923241118	0.1109234194371426	0.012311628933931	0.1762168334604291	10.37785017662824	-5.368728328196706	-1.475750734355182	-11.81287747949432	-450.5299372385762	-66.92161991449898	-10.09575594017447	1.065259745594563	0.9158988367466969	-0.09734920879043894	-2.931931941005408	0.1076823051264933	-0.6160745884662234	1.65947099045991	-1.713748627357453	-1.713748627357454	-0.4392115002401412	0.04509975638568242	-0.02647131178434227	0.1054459208309521	-1.578504105654959e-07	-3.129153930416647e-07	1.322433561695265e-06	-1.426235262066327e-08	-4.698604040618407e-07	7.150415739536609e-07	-2.919971254506246e-07
0.55	-0.5142674620883221	-0.09671137307627163	0.7300870620891007	1.424245544747676	-0.3532546808153421	-0.01808826724183129	-0.4235092477722275	0.8392066891149749	0.8392066891151824	-0.04785605626609324	-0.17451985545861	0.04244549637478585	0.07999598310964076	-1.325199687089339	-0.3782184365086172	-0.5788578662560064	2.971933716004657	0.07180615346084204	0.4407243517467996	-0.1848349505550057	1.407672730278415	1.407672730278388	0.2244378200951085	0.0003489145928159174	-0.1324611112780401	0.03020101967258019	-0.2122213464225892	0.001748431111283333	0.003285011835692547	-0.1522935873853238	0.1127031419541632	0.01295301686580829	0.181038852719123	10.7574938388215	-5.565008343263684	-1.614364246138043	-12.07339192497857	-454.7317366854015	-67.02320152182692	-9.499200482707236	1.19870532847005	0.9365780454388553	-0.01165726672467208	-3.207082978509372	0.04791859967301895	-0.6040348399625801	1.598718159482535	-1.836835464172679	-1.836835464148631	-0.5631342591173992	0.01938392832654059	-0.02869313050470603	0.04188242582503846	-1.964444753450858e-07	6.153717788512588e-08	2.014680695450283e-06	1.019036697412404e-07	-5.356527028030592e-07	8.451004472994806e-07	-3.194621492414373e-07
